<svg width="132" height="28" viewBox="0 0 132 28" fill="none" xmlns="http://www.w3.org/2000/svg">
<path d="M20.064 13.936C20.064 13.096 19.512 12.472 18.672 12.472H10.368V14.752H16.944C17.232 14.752 17.352 14.896 17.352 15.16V15.28C17.352 17.848 14.856 19.864 11.256 19.864C7.008 19.864 4.032 16.888 4.032 12.64C4.032 8.464 6.864 5.44 11.04 5.44C13.872 5.44 16.272 6.76 17.328 9.328H20.016C18.84 5.44 15.432 3.04 11.04 3.04C5.424 3.04 1.464 7 1.464 12.64C1.464 18.304 5.544 22.24 11.232 22.24C16.032 22.24 20.064 19.48 20.064 14.416V13.936ZM28.527 22.24C32.247 22.24 34.935 19.6 34.935 15.88C34.935 12.184 32.247 9.52 28.527 9.52C24.831 9.52 22.119 12.184 22.119 15.88C22.119 19.6 24.831 22.24 28.527 22.24ZM28.527 19.912C26.223 19.912 24.567 18.208 24.567 15.88C24.567 13.552 26.223 11.848 28.527 11.848C30.855 11.848 32.487 13.552 32.487 15.88C32.487 18.208 30.855 19.912 28.527 19.912ZM37.9048 3.28V22H40.3048V3.28H37.9048ZM49.452 9.52C45.948 9.52 43.308 12.208 43.308 15.88C43.308 19.552 46.02 22.24 49.716 22.24C53.412 22.24 56.148 19.552 56.148 15.904V3.28H53.748V11.632C52.86 10.336 51.156 9.52 49.452 9.52ZM53.7 15.88C53.7 18.208 52.02 19.912 49.74 19.912C47.436 19.912 45.756 18.208 45.756 15.88C45.756 13.576 47.436 11.848 49.74 11.848C52.02 11.848 53.7 13.576 53.7 15.88ZM70.9843 17.512H68.4643C67.9363 18.952 66.5923 19.912 64.9363 19.912C62.7043 19.912 61.0963 18.208 61.0963 15.88C61.0963 13.576 62.7043 11.848 64.9363 11.848C66.6163 11.848 67.9363 12.832 68.4643 14.272H70.9843C70.3843 11.464 68.0323 9.52 64.9363 9.52C61.3123 9.52 58.6483 12.208 58.6483 15.88C58.6483 19.552 61.3123 22.24 64.9363 22.24C68.0323 22.24 70.3603 20.32 70.9843 17.512ZM78.891 22.24C80.643 22.24 82.347 21.352 83.307 19.816V22H85.563V15.76C85.563 12.184 82.851 9.52 79.179 9.52C75.459 9.52 72.723 12.208 72.723 15.88C72.723 19.552 75.387 22.24 78.891 22.24ZM83.115 15.88C83.115 18.208 81.435 19.912 79.131 19.912C76.851 19.912 75.171 18.208 75.171 15.88C75.171 13.576 76.851 11.848 79.131 11.848C81.435 11.848 83.115 13.576 83.115 15.88ZM93.8702 22.24C96.9422 22.24 99.2702 20.872 99.2702 18.256C99.2702 16.096 97.7342 15.016 95.3102 14.824L92.6942 14.632C91.5182 14.56 90.7502 14.176 90.7502 13.192C90.7502 12.088 91.8542 11.56 93.4382 11.56C94.6862 11.56 96.0782 12.016 96.5822 13.36H99.1262C98.5262 10.72 96.2462 9.52 93.4382 9.52C90.5342 9.52 88.3502 10.816 88.3502 13.288C88.3502 15.472 90.0542 16.528 92.2142 16.696L94.9022 16.912C96.0542 16.984 96.8702 17.416 96.8702 18.424C96.8702 19.624 95.6942 20.176 93.9902 20.176C92.3102 20.176 90.9182 19.6 90.5102 18.184H87.9902C88.4942 20.872 90.8462 22.24 93.8702 22.24ZM110.798 21.976V19.672C109.742 19.816 108.95 19.864 108.35 19.864C106.574 19.864 105.974 19.024 105.974 17.44V11.944H110.798V9.76H105.974V5.44H103.574V8.848C103.574 9.424 103.214 9.76 102.662 9.76H100.454V11.944H103.574V17.632C103.574 20.68 105.158 22.168 107.966 22.168C108.782 22.168 109.742 22.144 110.798 21.976Z" fill="#EDEDED"/>
<path d="M117 20.9995C119.761 20.9995 122 18.3132 122 14.9995C122 11.6858 119.761 8.99951 117 8.99951" stroke="#EDEDED" stroke-width="2.6"/>
<path d="M120 26C125.523 26 130 20.8513 130 14.5C130 8.14873 125.523 3 120 3" stroke="#EDEDED" stroke-width="2.6"/>
</svg>
